<svg width="20" height="20" viewBox="0 0 20 20" fill="none" xmlns="http://www.w3.org/2000/svg">
<path fill-rule="evenodd" clip-rule="evenodd" d="M9.15898 15.019L4.09807 17.0982C3.67701 17.2857 2.93709 17.1267 2.99023 16.2053L4.0531 10.8199C4.05564 10.8126 4.05816 10.8052 4.06068 10.7979C4.10282 10.6752 4.14379 10.556 4.2248 10.4367L12.6011 0.30592C12.9199 -0.0976808 13.4227 -0.0609899 13.7498 0.17954L17.7069 3.44504C18.0462 3.74264 18.0871 4.24816 17.8337 4.63138L9.49829 14.7662C9.41244 14.8478 9.28572 14.9334 9.159 15.019L9.15898 15.019ZM16.0023 4.20332L13.3246 1.99778L6.08483 10.8648L8.73792 13.054L16.0023 4.20332ZM7.24172 14.012L5.42666 12.5118L4.9034 14.9742L7.24172 14.012ZM4.8622 18.2845H19.1497C19.6198 18.2845 20.0041 18.6636 20 19.1325C20 19.5972 19.6157 19.9804 19.1497 19.9804H4.90308C4.88053 19.9749 4.79751 19.9785 4.66817 19.9839C3.83624 20.0192 1.08773 20.1357 0.185555 18.4598C-0.198715 17.6934 0.01386 16.8454 0.823279 15.871C1.1217 15.5327 1.62861 15.4878 2.01288 15.7854C2.35218 16.083 2.39715 16.5886 2.09873 16.9718C1.75246 17.3906 1.77796 17.5842 1.7864 17.6483C1.78732 17.6553 1.78804 17.6608 1.78804 17.6648C1.89842 18.4231 4.8622 18.2845 4.8622 18.2845Z" fill="#BDBDCB"/>
</svg>
