<svg width="20" height="20" viewBox="0 0 20 20" fill="none" xmlns="http://www.w3.org/2000/svg">
<path fill-rule="evenodd" clip-rule="evenodd" d="M1.81818 10C1.81818 5.48131 5.48131 1.81818 10 1.81818C14.5187 1.81818 18.1818 5.48131 18.1818 10C18.1818 14.5187 14.5187 18.1818 10 18.1818C5.48131 18.1818 1.81818 14.5187 1.81818 10ZM10 0C4.47715 0 0 4.47715 0 10C0 15.5228 4.47715 20 10 20C15.5228 20 20 15.5228 20 10C20 4.47715 15.5228 0 10 0ZM9.99986 5.45452C10.5019 5.45452 10.909 5.86153 10.909 6.36361V9.99997C10.909 10.5021 10.5019 10.9091 9.99986 10.9091C9.49778 10.9091 9.09077 10.5021 9.09077 9.99997V6.36361C9.09077 5.86153 9.49778 5.45452 9.99986 5.45452ZM9.99986 12.7273C10.5019 12.7273 10.909 13.1343 10.909 13.6364V13.6541C10.909 14.1562 10.5019 14.5632 9.99986 14.5632C9.49778 14.5632 9.09077 14.1562 9.09077 13.6541V13.6364C9.09077 13.1343 9.49778 12.7273 9.99986 12.7273Z" fill="#D94646"/>
</svg>
