<svg width="16" height="16" viewBox="0 0 26 20" fill="none" xmlns="http://www.w3.org/2000/svg">
    <path
            fill-rule="evenodd"
            clip-rule="evenodd"
            d="M0 0.958904C0 0.429316 0.447715 0 1 0H25C25.5523 0 26 0.429316 26 0.958904C26 1.48849 25.5523 1.91781 25 1.91781H1C0.447715 1.91781 0 1.48849 0 0.958904ZM0 10C0 9.47041 0.447715 9.0411 1 9.0411H25C25.5523 9.0411 26 9.47041 26 10C26 10.5296 25.5523 10.9589 25 10.9589H1C0.447715 10.9589 0 10.5296 0 10ZM1 18.0822C0.447715 18.0822 0 18.5115 0 19.0411C0 19.5707 0.447715 20 1 20H25C25.5523 20 26 19.5707 26 19.0411C26 18.5115 25.5523 18.0822 25 18.0822H1Z"
            fill="#C3CAD3"
    />
</svg>